<svg xmlns="http://www.w3.org/2000/svg" xmlns:xlink="http://www.w3.org/1999/xlink" width="512" zoomAndPan="magnify" viewBox="0 0 384 383.999986" height="512" preserveAspectRatio="xMidYMid meet" version="1.0"><defs><g/><clipPath id="4f235ec7e5"><rect x="0" width="384" y="0" height="384"/></clipPath></defs><g><g clip-path="url(#4f235ec7e5)"><g fill="#000000" fill-opacity="1"><g transform="translate(-2.615832, 295.425183)"><g><path d="M 70.046875 5.328125 C 59.210938 5.328125 48.175781 3.992188 36.9375 1.328125 C 25.707031 -1.328125 16.351562 -4.820312 8.875 -9.15625 L 10.34375 -49.359375 L 13.296875 -49.359375 L 22.46875 -30.15625 C 25.226562 -24.632812 28.179688 -19.753906 31.328125 -15.515625 C 34.484375 -11.273438 38.820312 -7.972656 44.34375 -5.609375 C 48.28125 -3.640625 52.070312 -2.3125 55.71875 -1.625 C 59.363281 -0.9375 63.453125 -0.59375 67.984375 -0.59375 C 80.003906 -0.59375 89.507812 -3.84375 96.5 -10.34375 C 103.5 -16.84375 107 -25.21875 107 -35.46875 C 107 -45.125 104.632812 -52.660156 99.90625 -58.078125 C 95.175781 -63.492188 87.585938 -68.765625 77.140625 -73.890625 L 65.03125 -79.21875 C 48.082031 -86.707031 34.828125 -95.328125 25.265625 -105.078125 C 15.710938 -114.828125 10.9375 -127.785156 10.9375 -143.953125 C 10.9375 -155.578125 13.941406 -165.625 19.953125 -174.09375 C 25.960938 -182.570312 34.335938 -189.078125 45.078125 -193.609375 C 55.816406 -198.140625 68.378906 -200.40625 82.765625 -200.40625 C 93.203125 -200.40625 103.097656 -199.023438 112.453125 -196.265625 C 121.816406 -193.503906 129.953125 -189.757812 136.859375 -185.03125 L 135.078125 -149.5625 L 132.125 -149.5625 L 120 -171.734375 C 116.65625 -178.628906 113.304688 -183.503906 109.953125 -186.359375 C 106.609375 -189.210938 102.765625 -191.234375 98.421875 -192.421875 C 95.859375 -193.210938 93.492188 -193.753906 91.328125 -194.046875 C 89.160156 -194.335938 86.40625 -194.484375 83.0625 -194.484375 C 73.007812 -194.484375 64.535156 -191.578125 57.640625 -185.765625 C 50.742188 -179.953125 47.296875 -172.117188 47.296875 -162.265625 C 47.296875 -152.222656 49.953125 -144.195312 55.265625 -138.1875 C 60.585938 -132.175781 68.375 -126.804688 78.625 -122.078125 L 92.21875 -116.15625 C 111.132812 -107.882812 124.726562 -99.066406 133 -89.703125 C 141.28125 -80.347656 145.421875 -68.28125 145.421875 -53.5 C 145.421875 -36.15625 138.867188 -22.015625 125.765625 -11.078125 C 112.660156 -0.140625 94.085938 5.328125 70.046875 5.328125 Z M 70.046875 5.328125 "/></g></g></g><g fill="#000000" fill-opacity="1"><g transform="translate(150.194589, 295.425183)"><g><path d="M 5.90625 0 L 5.90625 -2.953125 L 11.828125 -5.03125 C 18.523438 -7.195312 21.875 -12.8125 21.875 -21.875 L 21.875 -173.203125 C 21.875 -177.148438 21.429688 -180.304688 20.546875 -182.671875 C 19.660156 -185.035156 17.34375 -187.003906 13.59375 -188.578125 L 5.90625 -192.125 L 5.90625 -195.078125 L 62.953125 -195.078125 L 117.640625 -52.015625 L 169.078125 -195.078125 L 227.296875 -195.078125 L 227.296875 -192.125 L 222.578125 -190.359375 C 218.828125 -188.972656 216.257812 -187.046875 214.875 -184.578125 C 213.5 -182.117188 212.8125 -178.921875 212.8125 -174.984375 L 212.8125 -20.390625 C 212.8125 -16.453125 213.300781 -13.398438 214.28125 -11.234375 C 215.269531 -9.066406 217.640625 -7.191406 221.390625 -5.609375 L 227.296875 -2.953125 L 227.296875 0 L 153.703125 0 L 153.703125 -2.953125 L 159.90625 -5.609375 C 163.65625 -7.191406 166.019531 -9.066406 167 -11.234375 C 167.988281 -13.398438 168.484375 -16.453125 168.484375 -20.390625 L 168.484375 -86.90625 L 169.078125 -171.4375 L 107.296875 0 L 92.515625 0 L 28.078125 -169.359375 L 28.96875 -95.765625 L 28.96875 -21.28125 C 28.96875 -16.945312 29.609375 -13.445312 30.890625 -10.78125 C 32.171875 -8.125 34.679688 -6.207031 38.421875 -5.03125 L 44.921875 -2.953125 L 44.921875 0 Z M 5.90625 0 "/></g></g></g></g></g></svg>